<svg xmlns="http://www.w3.org/2000/svg" viewBox="0 0 300.37 38.79"><defs><style>.cls-1{isolation:isolate}.cls-2{fill:#fff}.cls-3{fill:#e62566}</style></defs><g id="Layer_2" data-name="Layer 2"><g id="Layer_1-2" data-name="Layer 1"><g class="cls-1"><path class="cls-2" d="M6.34 17.05l7.79 2v7L0 22.09v-8.37l14.13-3.87v5.31zm23.22 14.67c-6 0-12.23-1-12.23-8.28v-8c0-7.79 6.7-8.42 12.23-8.42l5.85.59v4.23h-5.62c-3.51 0-3.78.85-3.78 3.46v8.1c0 2.61.31 3.42 3.78 3.42h5.62v4.23zm32-8.32c0 5.71-3.87 8.32-11.12 8.28h-1.66c-7.25 0-11.11-2.61-11.11-8.28v-8.1c0-5.58 3.95-8.3 11.11-8.3h1.66c7.16 0 11.12 2.7 11.12 8.28zm-8.69-8.1c0-2.07-.22-3.42-3.24-3.42h-.27c-3 0-3.19 1.35-3.19 3.42v8.1c0 2.25.45 3.46 3.46 3.46s3.24-1.26 3.24-3.46zm23.49 16.47c-7.06.49-11.07-2.75-11.07-8.33v-8.23c0-6.48 4.59-8.28 9.09-8.33l6.21.81c0-7.69.14-7.69 8.6-7.69v30.87zm4.23-20h-3.78c-2.43 0-2.92.41-2.92 3.47v8.23c0 3 .54 3.47 2.92 3.47h3.78zM117.54 16c0 5.89-1.89 7.87-9 7.92l-6.35-.81v1.75c0 .86.36 2 2.88 2h11.52V31l-11.88.76c-7.6.45-11.07-2.7-11.07-8.28v-8c0-5.54 4.1-8.33 11.16-8.33h1.62c7.25 0 11.12 2.66 11.12 8.33zm-8.64-.63c0-3.06-.5-3.47-2.93-3.47h-.85c-2.3 0-2.93.59-2.93 3.47v4.09h2.3c1.08 0 2.52.14 3.46-.45.68-.4 1-1.08 1-3zm12.19 10.68v-5.31l7.83-1.89-7.83-2v-7l14.13 4v8.37zm18 5.31V0c8.46 0 8.46 0 8.46 7.24v24.12zm36.68-7.96c0 5.71-3.87 8.32-11.12 8.28H163c-7.25 0-11.12-2.61-11.12-8.28v-8.1c0-5.58 4-8.28 11.12-8.28h1.66c7.16 0 11.12 2.7 11.12 8.28zm-8.69-8.1c0-2.07-.22-3.42-3.24-3.42h-.27c-3 0-3.19 1.35-3.19 3.42v8.1c0 2.25.45 3.46 3.46 3.46s3.24-1.26 3.24-3.46zm24.84 16.38c-8.14.54-11.79-2.66-11.79-8.28v-16c8.64 0 8.64 0 8.64 7.07v8.93c0 2.16.18 3.46 3.2 3.46h3.46V7.42H204v23.45z"/></g><g class="cls-1"><path class="cls-3" d="M217.12 29.29c0 .63-.18 2.39-4.45 2.34H212c-4.27 0-4.45-1.71-4.45-2.34V26.1c0-.63.22-2.39 4.45-2.39h.72c4.19 0 4.41 1.76 4.41 2.39zm14.04 2.43c-7.92.54-11.43-2.61-11.43-8.28v-.76c0-5.54 3.42-7.92 9-7.92l6.39.72v-1.22c0-2-1.26-2.11-5.35-2.11h-8.6V8l9-.85c9.9 0 13.46 2.47 13.46 8.59v15.13zm4-12.46h-3.91c-2.39 0-2.84.31-2.84 3.42v.76c0 3.06.45 3.47 2.93 3.47h3.82zm36.95 4.27c0 6.26-4.9 8.28-9.09 8.33l-6.39-.81c0 7.74 0 7.74-8.41 7.74V7.87L260.91 7c7.06-.49 11.2 2.7 11.2 8.33zm-8.59-7.92c0-2.88-.63-3.42-3.06-3.42h-3.65V27h3.78c2.43 0 2.93-.41 2.93-3.47zm36.85 7.92c0 6.26-4.9 8.28-9.09 8.33l-6.39-.81c0 7.74 0 7.74-8.41 7.74V7.87L289.17 7c7.06-.49 11.2 2.7 11.2 8.33zm-8.59-7.92c0-2.88-.63-3.42-3.06-3.42h-3.65V27h3.78c2.43 0 2.93-.41 2.93-3.47z"/></g></g></g></svg>